<svg xmlns="http://www.w3.org/2000/svg" id="Kazakhstan_svg" data-name="Kazakhstan svg" width="624" height="560" viewBox="0 0 624 560">
    <defs>
        <style>
            .cls-1, .cls-2, .cls-3 {
            fill: #9B9B9B;
            fill-opacity: 0.2
            }

            .cls-4 {
            fill-opacity: 0.01
            }

            .cls-2 {
            fill-rule: evenodd;
            }

            .cls-3 {
            stroke: #fff;
            stroke-width: 0.38px;
            }
        </style>
    </defs>
    <g id="use3938">
        <path id="be" class="cls-1" d="M342,60.11c7.86,1.46,11.77-2.86,12.94-8.74C356.49,43.53,353.14,4,353.14,4s-18.21,35.2-19.77,43c-1.17,5.88.77,11.47,8.62,13Z" transform="translate(0 0)"/>
    </g>
    <g id="use3940">
        <path id="be-2" data-name="be" class="cls-1" d="M370.66,68.81c7.42,3,12.1-.51,14.4-6.05,3.06-7.38,7.47-46.77,7.47-46.77S367.8,47,364.74,54.35c-2.29,5.54-1.47,11.4,5.92,14.46Z" transform="translate(0 0)"/>
    </g>
    <g id="use3942">
        <path id="be-3" data-name="be" class="cls-1" d="M397.08,82.93c6.7,4.36,12,1.87,15.3-3.12,4.45-6.65,16.46-44.42,16.46-44.42S398.54,61,394.1,67.6c-3.33,5-3.67,10.89,3,15.33Z" transform="translate(0 0)"/>
    </g>
    <g id="use3944">
        <path id="be-4" data-name="be" class="cls-1" d="M420.24,101.93c5.72,5.59,11.38,4.17,15.62-.07,5.65-5.65,24.8-40.35,24.8-40.35S426,80.66,420.31,86.32c-4.24,4.24-5.73,10-.07,15.61Z" transform="translate(0 0)"/>
    </g>
    <g id="use3946">
        <path id="be-5" data-name="be" class="cls-1" d="M439.24,125.09c4.53,6.6,10.35,6.31,15.34,3,6.64-4.44,32.2-34.74,32.2-34.74s-37.77,12-44.42,16.46c-5,3.33-7.56,8.66-3.12,15.3Z" transform="translate(0 0)"/>
    </g>
    <g id="use3948">
        <path id="be-6" data-name="be" class="cls-1" d="M453.37,151.52c3.15,7.34,8.91,8.2,14.45,5.91,7.39-3.06,38.37-27.79,38.37-27.79s-39.39,4.41-46.78,7.47c-5.54,2.3-9.1,7-6,14.41Z" transform="translate(0 0)"/>
    </g>
    <g id="use3950">
        <path id="be-7" data-name="be" class="cls-1" d="M462.06,180.18c1.66,7.83,7.15,9.79,13,8.62,7.84-1.56,43.05-19.77,43.05-19.77s-39.5-3.35-47.34-1.79c-5.88,1.17-10.3,5.1-8.74,12.94Z" transform="translate(0 0)"/>
    </g>
    <g id="use3952">
        <path id="be-8" data-name="be" class="cls-1" d="M465,210c.1,8,5.1,11,11.09,11,8,0,46.08-11,46.08-11s-38.08-11-46.08-11c-6,0-11.09,3-11.09,11Z" transform="translate(0 0)"/>
    </g>
    <g id="use3954">
        <path id="be-9" data-name="be" class="cls-1" d="M462.06,239.82c-1.46,7.86,2.86,11.77,8.74,12.94,7.84,1.56,47.34-1.79,47.34-1.79s-35.21-18.21-43.05-19.77c-5.88-1.17-11.47.77-13,8.62Z" transform="translate(0 0)"/>
    </g>
    <g id="use3956">
        <path id="be-10" data-name="be" class="cls-1" d="M453.37,268.48c-3,7.43.5,12.11,6,14.41,7.39,3.06,46.78,7.47,46.78,7.47s-31-24.73-38.37-27.79c-5.54-2.29-11.39-1.47-14.45,5.91Z" transform="translate(0 0)"/>
    </g>
    <g id="use3958">
        <path id="be-11" data-name="be" class="cls-1" d="M439.24,294.91c-4.36,6.7-1.87,12,3.12,15.3,6.65,4.44,44.42,16.46,44.42,16.46s-25.56-30.3-32.2-34.74c-5-3.33-10.9-3.67-15.34,3Z" transform="translate(0 0)"/>
    </g>
    <g id="use3960">
        <path id="be-12" data-name="be" class="cls-1" d="M420.24,318.07c-5.59,5.72-4.17,11.37.07,15.61,5.65,5.66,40.35,24.81,40.35,24.81s-19.15-34.7-24.8-40.35c-4.24-4.24-10-5.73-15.62-.07Z" transform="translate(0 0)"/>
    </g>
    <g id="use3962">
        <path id="be-13" data-name="be" class="cls-1" d="M397.08,337.07c-6.6,4.53-6.31,10.35-3,15.33,4.44,6.65,34.74,32.21,34.74,32.21s-12-37.77-16.46-44.42c-3.33-5-8.65-7.56-15.3-3.12Z" transform="translate(0 0)"/>
    </g>
    <g id="use3964">
        <path id="be-14" data-name="be" class="cls-1" d="M370.66,351.19c-7.35,3.16-8.21,8.92-5.92,14.46C367.8,373,392.53,404,392.53,404s-4.41-39.39-7.47-46.77c-2.3-5.54-7-9.11-14.4-6.05Z" transform="translate(0 0)"/>
    </g>
    <g id="use3974">
        <path id="be-15" data-name="be" class="cls-1" d="M227.26,337.07c-6.7-4.36-12-1.87-15.3,3.12-4.44,6.65-16.46,44.42-16.46,44.42s30.3-25.56,34.74-32.21c3.33-5,3.67-10.89-3-15.33Z" transform="translate(0 0)"/>
    </g>
    <g id="use3976">
        <path id="be-16" data-name="be" class="cls-1" d="M204.11,318.07c-5.73-5.59-11.38-4.17-15.62.07-5.66,5.65-24.81,40.35-24.81,40.35s34.7-19.15,40.36-24.81c4.24-4.24,5.72-10,.07-15.61Z" transform="translate(0 0)"/>
    </g>
    <g id="use3978">
        <path id="be-17" data-name="be" class="cls-1" d="M185.1,294.91c-4.53-6.6-10.35-6.31-15.33-3-6.65,4.44-32.21,34.74-32.21,34.74s37.77-12,44.42-16.46c5-3.33,7.56-8.66,3.12-15.3Z" transform="translate(0 0)"/>
    </g>
    <g id="use3980">
        <path id="be-18" data-name="be" class="cls-1" d="M171,268.48c-3.16-7.34-8.92-8.2-14.46-5.91-7.39,3.06-38.36,27.79-38.36,27.79s39.39-4.41,46.77-7.47c5.55-2.3,9.11-7,6-14.41Z" transform="translate(0 0)"/>
    </g>
    <g id="use3982">
        <path id="be-19" data-name="be" class="cls-1" d="M162.28,239.82c-1.66-7.83-7.14-9.79-13-8.62-7.84,1.56-43,19.77-43,19.77s39.49,3.35,47.33,1.79c5.89-1.17,10.3-5.1,8.74-12.94Z" transform="translate(0 0)"/>
    </g>
    <g id="use3984">
        <path id="be-20" data-name="be" class="cls-1" d="M159.34,210c-.1-8-5.09-11-11.09-11-8,0-46.08,11-46.08,11s38.08,11,46.08,11c6,0,11.09-3,11.09-11Z" transform="translate(0 0)"/>
    </g>
    <g id="use3986">
        <path id="be-21" data-name="be" class="cls-1" d="M162.28,180.18c1.46-7.86-2.85-11.77-8.74-12.94-7.84-1.56-47.33,1.79-47.33,1.79s35.2,18.21,43,19.77c5.89,1.17,11.47-.77,13-8.62Z" transform="translate(0 0)"/>
    </g>
    <g id="use3988">
        <path id="be-22" data-name="be" class="cls-1" d="M171,151.52c3-7.43-.5-12.11-6-14.41-7.38-3.06-46.77-7.47-46.77-7.47s31,24.73,38.36,27.79c5.54,2.29,11.4,1.47,14.46-5.91Z" transform="translate(0 0)"/>
    </g>
    <g id="use3990">
        <path id="be-23" data-name="be" class="cls-1" d="M185.1,125.09c4.36-6.7,1.87-12-3.12-15.3-6.65-4.44-44.42-16.46-44.42-16.46s25.56,30.3,32.21,34.74c5,3.33,10.89,3.67,15.33-3Z" transform="translate(0 0)"/>
    </g>
    <g id="use3992">
        <path id="be-24" data-name="be" class="cls-1" d="M204.11,101.93c5.58-5.72,4.17-11.37-.07-15.61-5.66-5.66-40.36-24.81-40.36-24.81s19.15,34.7,24.81,40.35c4.24,4.24,10,5.73,15.62.07Z" transform="translate(0 0)"/>
    </g>
    <circle id="circle3934" class="cls-1" cx="312" cy="210.17" r="134.55"/>
    <g id="use3936">
        <path id="be-25" data-name="be" class="cls-1" d="M312.17,57.17c8-.1,11-5.09,11-11.09,0-8-11-46.08-11-46.08s-11,38.08-11,46.08c0,6,3,11.09,11,11.09Z" transform="translate(0 0)"/>
    </g>
    <g id="use3966">
        <path id="be-26" data-name="be" class="cls-1" d="M342,359.89c-7.83,1.66-9.79,7.15-8.62,13,1.56,7.84,19.77,43,19.77,43s3.35-39.49,1.79-47.33c-1.17-5.88-5.1-10.3-12.94-8.74Z" transform="translate(0 0)"/>
    </g>
    <g id="use3968">
        <path id="be-27" data-name="be" class="cls-1" d="M312.17,362.83c-8,.1-11,5.09-11,11.09,0,8,11,46.08,11,46.08s11-38.08,11-46.08c0-6-3-11.09-11-11.09Z" transform="translate(0 0)"/>
    </g>
    <g id="use3970">
        <path id="be-28" data-name="be" class="cls-1" d="M282.36,359.89c-7.87-1.46-11.78,2.86-12.95,8.74-1.56,7.84,1.79,47.33,1.79,47.33s18.22-35.2,19.78-43c1.16-5.88-.78-11.47-8.62-13Z" transform="translate(0 0)"/>
    </g>
    <g id="use3972">
        <path id="be-29" data-name="be" class="cls-1" d="M253.69,351.19c-7.43-3-12.11.51-14.41,6.05-3.06,7.38-7.47,46.77-7.47,46.77s24.73-31,27.79-38.36c2.29-5.54,1.47-11.4-5.91-14.46Z" transform="translate(0 0)"/>
    </g>
    <g id="use3994">
        <path id="be-30" data-name="be" class="cls-1" d="M227.26,82.93c6.6-4.53,6.31-10.35,3-15.33C225.8,61,195.5,35.39,195.5,35.39s12,37.77,16.46,44.42c3.33,5,8.66,7.56,15.3,3.12Z" transform="translate(0 0)"/>
    </g>
    <g id="use3996">
        <path id="be-31" data-name="be" class="cls-1" d="M253.69,68.81c7.35-3.16,8.2-8.92,5.91-14.46C256.54,47,231.81,16,231.81,16s4.41,39.39,7.47,46.77c2.3,5.54,7,9.11,14.41,6.05Z" transform="translate(0 0)"/>
    </g>
    <g id="use3998">
        <path id="be-32" data-name="be" class="cls-1" d="M282.36,60.11c7.82-1.66,9.78-7.15,8.62-13C289.42,39.24,271.2,4,271.2,4s-3.35,39.49-1.79,47.33c1.17,5.88,5.1,10.3,12.95,8.74Z" transform="translate(0 0)"/>
    </g>
    <path id="path13" class="cls-2" d="M307.49,445l-2.33,4.64-2.58,5.94L301,458.36l-1.29,2.58-1,2.07-1.29,1.29-3.1-2.58L291,459.4l-3.62-1.81L283.5,456l-4.13-1-4.13-1-4.13-.77-4.38-.52-9-.77-9-.26-8.77-.52-8.25-1-4.65-.77-4.38-1-2.32-.77-2.33-.77-2.06-1-1.81-1-2.83-1.8-2.84-2.07-3.1-2.32-2.83-2.58-5.94-5.67-5.93-5.68-5.93-5.41-5.42-4.91-2.58-1.8-2.58-1.81-2.32-1-2.32-.77-4.39-1-3.87-1.28-3.87-1.29-3.87-1.81-3.35-1.55-3.35-2.06-3.1-2.07-2.84-2.06-3.09-2.32L135.17,391l-2.58-2.58L130,385.88l-4.9-5.42-4.64-5.67-9.29-12.13-9.8-12.38-5.68-5.93-5.93-5.94-3.35-3.09-3.36-2.84-3.61-2.58-3.87-2.84-.77.26-.78.78-.77,1-.52,1.29L72,332.74l-.26,1-1.8-.77-1.55-.78-1.81-.77L65,330.93H61.65l-1.8.52-1.81.77,1.81,2.32,2.32,3.1,2.32,3.61,2.06,3.87,2.07,4.13,1.54,3.87.52,2.06.52,1.55.25,1.8v1.55H57.52l2.07,3.1,2.32,3.09,2.58,3.1,2.84,2.84L70.16,375,73,377.88l2.84,2.32L78.42,382l-2.84.26-3.87.26-3.87.51L65,383.3l2.32,2.06,2.83,2.07,3.1,2.32,3.35,2.32L80,394.13l3.35,1.81,3.1,1,2.83.77,1.29.26,1,.26.77.26.51.51.26.26v1l-.26.52-.51,1.55-.26,1.55-.26,1v.77l.26,1.29.26,1,.51.52.78.51,1,.52,1.29.26,1.29.51,1.29.52,1.29.52,1,.77.26.26V413l-.26.26-1,.78-1,.77-1,1-1,1.29v1l-.25,1,.25,1.28L97,422l4.39,1.55,4.64,1.55,2.06.51,2.07.78,1.55.77,1.29.78-8.52,6.7,2.32,2.07,2.84,1.54,3.61,1.81,3.61,1.29,4.13,1.29,3.87.77,3.36.78h3.09l-2.84,2.06-3.61,2.32L121,450.63l-2.84,2.06,2.58,1.81,3.62,1.8,4.12,2.06,4.9,2.33,11.35,4.9,12.39,4.9L170,475.13l12.64,4.13,5.68,1.8,5.16,1.29,4.64,1.29,4.13.78-8.26-.78-7.73-1-7.74-1.29-7.23-1.54-7.22-2.07-7-2.06-6.71-2.32-6.45-2.58-12.64-5.16-11.87-5.16-5.67-2.32-5.68-2.32-5.41-2.07-5.42-2.06,1.29-.78,1.55-.51,2.06-.78,2.32-.51,4.9-1.55,4.39-1.55L106,444.69l-10.58-2.06-5.15-1.55-4.39-1.29L84.09,439l-1.54-.78-1.29-.77-.78-.77v-.26l.26-.26.77-.26.78-.51,2.06-.78,2.84-.77,6.19-1.81,5.16-1.8L85.9,427.93l-9.8-1.55-3.61-.78-2.84-1-1-.51-1-.78-.77-.51L66.3,422l.77-.51,2.32-.52,3.35-.52,3.87-.77,4.13-.51,3.61-1,1.81-.51,1.55-.52,1-.77,1-.78-2.06-.77L85.64,414l-2.58-.52L80.48,413l-5.93-.77-5.93-.77-3.1-.78-2.84-.51-2.83-1-2.84-1-2.58-1.29L52.11,405,50,403.16l-1.54-2.32.51-.26,1-.26h1.29l2.07.26,4.64.26,5.16.26,5.67.51H76.1l2.06-.25,1.55-.52,1-.52-6.19-2.58-8.25-3.61-4.65-2.32-4.9-2.32-4.9-2.58L47,384.33l-4.64-2.84-4.39-3.09-4.13-3.1-3.61-3.09-1.55-1.81-1.54-1.55-1-1.54-1-1.81L24,364l-.52-1.8-.25-1.55L23,358.79h1.8l2.07.26,2.06.77,2.06.78,4.13,2.58,4.65,2.58,2.06,1.29,2.32,1.29,2.32,1,2.07.77,2.32.52,2.06.26H55.2l2.07-.78-6.19-4.64-7-5.93-8-7-8-7.74-8-8.25-7.48-8.26L9.29,324l-3.36-4.13L3.1,315.71.52,311.84l-.52-1V309l.26-.78.26-.77.77-.52.77-.77.78-.52,1-.25,1-.26H7l1.29.26,1,.25,1,.78.77.77,4.65,4.64,5.41,5.42,5.68,5.93L33,329.13l6.19,5.41,6.19,5.16,3.1,2.07,2.83,1.8,3.1,1.55,2.84,1-2.07-1.29-2.32-2.32-3.09-3.09-3.36-3.87-7.48-9L30.7,316l-4.13-5.67-3.87-5.68L19.09,299l-3.61-5.42-3.1-5.16L9.8,283.73,8,279.34l-1.55-3.61-.26-1.29v-2.06l.26-.78.51-.77.52-.77.52-.52.77-.52,1.81-.51,1.54-.52h3.62l1,.26.77.26,1,.51.78.78,2.06,1.8,2.06,2.58,4.65,5.94L33,287.6l5.67,8,5.94,8.26,3.09,3.87,3.1,3.87,3.35,3.35,3.61,3.1-4.38-8.52-4.9-9.8-2.58-5.42-2.33-5.41-2.32-5.68-2.06-5.67L37.4,271.6l-1.8-5.67-1.29-5.68-1-5.67-.52-5.42L32.5,244l.26-2.58L33,239.1l.26-2.32.51-2.32.52-.78.26-.77.77-.77.52-.52,1.8-.77,1.81-.52h1.8l1.55.26.77.26.52.25.26.52.26.77,2.58,8.26,2.32,8.77,2.32,9,2.32,8.77L56.49,276l3.1,8.25,1.55,3.87,1.8,3.87L65,295.59l2.32,3.61-1.55-7.48-1-6.7-1-6.19-.52-5.68-.52-4.9-.25-4.39.25-3.61.26-3.09.52-2.58.77-2.07.52-.77.51-.77.52-.52.77-.52.78-.25h2.32l2.06.77,2.07,1,1.8,8.26,1.81,8,2.06,7.48,2.32,7.23,2.58,7.22,2.84,7.22,3.1,7.48,3.61,7.48,2.58,4.91,2.58,4.9,2.83,4.9,2.84,4.9,3.1,4.64,3.09,4.65,3.36,4.64,3.35,4.64,6.19,7.74,6.45,7.22,6.71,7.23,7,6.7,7.22,6.71,7.48,6.19,7.74,5.93,8,5.68L179.8,407l5.67,3.35,5.93,3.36,5.68,3.09,9,4.39,8.77,4.13,9.29,3.61,9.28,3.35,8.77,2.84,9,2.32,9.29,2.06,9,1.81,9.54,1.29,9.29,1,9.54.77,9.55.52" transform="translate(0 0)"/>
    <path id="path17" class="cls-2" d="M331,523.37l4.39.52,2.06.77.51.26v.26h-.51l-.52.25-4.12.78h-3.36l-10.83-.78-13.16-.25-14.19-.26-14.7.26-7,.25-7,.52-6.19.52-5.93.51-4.9.78-4.39,1-1.55.51-1.54.52-1.29.51-1,.78.52-2.58,1-2.58-1.8.52-1.81.51-1.55.78-1.55.77-1.29.77-1,1-.77,1.29-.26,1.29-.77-1.8-.52-1.55-.26-1.8-.25-1.55.25-1.29.26-1.55.26-1.29.77-1.29.52-1,1-1.29,1-1,1-1,2.84-1.81,3.1-1.81a24.22,24.22,0,0,0,5.41,2.33,15.23,15.23,0,0,0,5.42-.52,7,7,0,0,0,10.06-.52,5.78,5.78,0,0,0,1.29-2.06,11.51,11.51,0,0,0,0-5.16l3.1-.26,3.61-.51,3.87-1,4.13-1,4.12-.77,3.87-1,3.61-.52,3.1-.26-1.29,1-3.1,2.32-3.61,2.83-2.58,1.81,3.36.77,2.83.52-2.06,2.32-2.06,2.32-2.07,2.32L276,519.76l2.07.77,2.06.52,2.32.51h4.65l2.32-.51,2.32-.52,1.81-1,2.06,1,2.06.78,2.07.51,2.06.52,4.64.51,4.91.52H331" transform="translate(0 0)"/>
    <path id="path21" class="cls-2 cls-4" d="M251.77,508.67l.77.25.77.26.26.78.26.77-.26.77-.26.78-.77.51h-1.81l-.51-.51-.52-.78-.25-.77.25-.77.52-.78.51-.26,1-.25" transform="translate(0 0)"/>
    <path id="path25" class="cls-2" d="M251.51,509.7l.51.26.26.51L252,511l-.51.26L251,511l-.26-.52L251,510l.52-.26" transform="translate(0 0)"/>
    <path id="path3166" class="cls-1" d="M251.68,513.25a2.37,2.37,0,1,1,2.36-2.36A2.37,2.37,0,0,1,251.68,513.25Z" transform="translate(0 0)"/>
    <path id="path29" class="cls-2" d="M444,536l-1.81.77-1.81.26-1.54.26L437.5,537l-1.29-.26-1.29-.51-1-.52L432.6,535l-2.07-1.55-2.06-1.55-1-.77-1.29-.52-1-.26h-1.29l-2.32,4.91-3.09,6.19-1,1.54-1,1.29-1,.78-1,.77-1.29.52H411.7l-1.29-.52-1.55-.77-.51-.78-.52-.77-.51-1-.52-1.29-.52-2.32L406,537.3l-1.55,1.29-1.55,1.81-1.29,2.06-1.55,2.32-1.8,2.32-1.81,1.81-1,1-1.29.77-1.29.52-1.55.52h-.77l-1.29.25-1.29-.25-1-.52-3.1-3.61L380.49,544l-2.32,3.61-2.58,3.09L374.3,552,373,553.29l-1.29,1-1.29.78-1,.51-1.29.26h-1.29l-1-.26-1-.51-.77-.78L363,553l-.52-1.55-.52-1.55-1-2.58-.25-1.29-.52-1-.52-.52h-.51l-7,11.35-1,1-1.81.78-2.06.51-2.06.52h-2.32l-1.81-.52-.52-.25-.77-.78-.26-.51v-1l1-11.35-.77.26-1,.52-1,.51-1,1-2.06,2.32-2.32,2.58-2.32,2.83-2.84,2.33-1.29,1-1.29,1-1.55.77-1.29.26-1.8.26-1.29-.26-.52-.26-.51-.51-.26-.78v-.77l.26-3.35.51-3.36.26-1.8-.26-1.55-.26-1.55-1-1.8-1.55,2.32-2.58,3.35L309.55,553l-3.35,3.35-1.81,1.29L302.58,559l-1.54.51-1.29.52-.52-.26h-.77l-.52-.51-.26-.26-.51-.78-.26-.77v-1l-.26-1.29.26-9.8-6.45,4.38-7.74,4.9-1.8.78-2.07,1-1.8.51-2.07.52-1.8.52h-1.81l-1.8-.26-1.55-.52.77-2.06.78-1.81.77-1.8,1-1.55,1-1.55,1-1.55,1.29-1.29,1.28-1.29,2.84-2.06,3.36-2.06,3.35-1.55,3.87-1.29,3.87-1,4.38-.78,4.39-.77,4.38-.52,9.55-.51,9.8-.26h19.61l4.9-.26,4.64-.26,4.64-.25,4.39-.52,4.38-.77,3.87-.78,3.87-1,3.61-1.55,3.36-1.54,2.83-2.07,2.84-2.06,2.32-2.84-2.58-5.16,2.07-.26,2.06-.51,2.07-1,1.8-1.29.78-.52L398,510l.51-1,.52-.77.26-1v-1.81l-.52-1,4.39-.77,4.64-.52,4.9-.26h5.16l10.58.52,10.83.77,11.09,1.29,10.84,1,10.57,1,9.81.51v3.61l-.26,1.55-.52,1.55-.51,1.55-.52,1.29-.77,1-1,1.29-1.81,1.8-2.32,1.55-2.32,1-2.58.52-2.84.52-2.84-.26-2.58-.26-2.83-.77-2.58-1.29-2.58-1.29-2.07-1.81-2.06-2.06v4.38l-.78,5.68-.51,2.83-.78,2.58-.51,1-.77.77-.52.77L444,536m-207.4-24.25,5.93,2.58,1.55-1.29,2.06-1.55,2.32-1.29,2.07-1.29,7.74-3.09,6.7-3.1,3.36-1.29,2.83-1.54,2.84-1.55,2.32-1.55,5.94-3.87,5.93-3.87,5.67-3.61,5.16-3.61,3.87-3.1,3.1-2.83,3.35-3.1,3.61-3.35,1.29-1.29,1.55-1,1.81-1,2.06-1L324,463l4.39-1.55,5.93-1.55,6.45-1.55,6.71-1.29,7.48-1.28,9-1,9-1.29,9.28-1,9-1.55,3.1-.51,2.84-.78,3.09-.77,3.1-.77,3.09-3.87,4.9-5.42,3.36-3.35,3.87-3.1,4.38-3.35,5.16-3.36L436,421l8.25-4.13,8.52-4.38,8.25-3.87,7.74-3.87,7.22-3.61,5.94-3.1,4.64-3.09L487.8,391l1.8-3.87,2.33-3.87,2.83-3.87,3.1-4.13,3.87-4.13,4.13-4.64,5.15-4.9,4.65-4.13,4.9-4.12,2.58-1.81,2.58-1.81,2.84-1.54,2.83-1.55,2.84-1.29,2.84-1,3.09-.78,2.84-.77,3.1-.26,2.83-.26,3.1.26,2.84.52-.26,3.09-.77,3.1-1,3.09-1.29,3.36-1.8,3.35-2.32,3.35L544.55,366l-3.35,3.61,2.58-.26,2.32-.52,1.8-.51,1.81-.78,1.55-.51,1.8-.52,2.32-.26L558,366l.26,1.8v1.81l-.26,1.8-.51,1.55-.78,1.55-1,1.55-1,1.29-1.29,1.29-5.42,5.15-5.41,4.91,3.09.25,3.35,1,3.36,1,2.58.51-3.1,2.33-3.61,2.32-3.61,2.32-4.13,2.32-4.13,2.32-4.12,2.58L528,408.58l-3.87,3.09,1.81.26,2.32,1,1,.26,1,.52.78.26.77-.26-5.16,2.84-6.45,3.09-3.09,1.55-2.58,1.55-1.29.77-.78.77-.51.78-.52.77.26,1,.51.78,1,.77.77.78-.26,1-.51.77-1,.77-1,.78L509,433.86l-3.09,1.29-3.1,1-2.84,1-2.06,1-1.55.78,5.16,5.16-1.81,1.8-1.8,1.29-1.55.78-1.8.77-3.62.52H486l.52,2.32.77,2.32.52,2.58.51,2.58-4.38,3.35-5.42,3.87-5.93,3.87-6.71,3.87L462,476.16,458.13,478,454,479.52l-4.39,1.54L445,482.61l-4.9,1-5.16,1-5.42.77,9.54.26h8.26l7.74-.78,7-.77,6.45-1.29,5.68-1.55,5.67-2.06,5.42-2.06,7.22-3.36,7-3.87,6.7-4.12,7-4.13L509,459.65l-4.13-1.29-2.06-.77-2.06-1-2.33-1-2.32-1.29,2.07-1.55,2.32-1,2.84-1,3.09-.78,6.19-1.29,6.45-.77,5.68-.78,5.16-.51,2.06-.52,1.8-.51,1-.52.77-.77-.26-.26-.51-.52-.78-.25-1-.52-2.84-.52-3.61-.51-3.61-.26-3.61-.52-3.1-.77-2.06-.77,7-1.55,7-1.55,6.19-1.29,5.16-1.29,4.39-1.29,3.86-1.55,1.81-.77,1.29-.77,1.29-.78,1-1-.26-.26-.51-.51-1-.26-1.29-.26-3.36-.26h-3.87l-4.12-.26-3.87-.25-3.36-.52-2.06-.52,1.81-.77,1.8-.77,6.19-1.81,5.42-1.55,4.9-1.29,4.64-1.54L559,415,563.9,413l2.32-1.29,2.06-1.29.77-.77.78-1,.77-.78.26-.77-.26-.77-.77-.52-.78-.26h-7.22l-3.35.26h-4.64l-1.29-.26-1-.51-1-.52,10.32-6.71,9.54-6.19,8.52-5.41,7.48-5.16,3.09-2.58,2.84-2.58,2.32-2.58,2.07-2.58,1.54-2.84,1.29-2.84.78-3.09v-3.36h-1.81l-1.8.26-2.07.78-2.06.77-4.13,2.58L584,365.5l-2.33,1.29-2.06,1.29-2.32,1-2.32.78-2.07.51-2.06.26h-2.32l-2.06-.77,6.19-4.65,7-5.93,8-7,8-7.73,8-8.26,7.48-8.25,3.36-4.39,3.35-4.13,2.84-4.12,2.58-3.87.51-1,.26-.77-.26-1-.26-.77-.25-.78-.78-.51-.77-.78-.78-.26-1-.51-1-.26h-2.06l-1,.26-1.29.26-.78.77-1,.77L608,311.59,602.59,317l-5.68,5.94-6.19,5.93-6.19,5.42-6.19,5.16-3.09,2.06-2.84,1.81-3.1,1.54-2.58,1.29,1.81-1.54,2.32-2.33,3.1-3.09,3.35-3.87,7.48-9,8.26-10.58,4.12-5.67,3.87-5.68,3.87-5.41,3.35-5.68,3.1-5.16,2.58-4.64,2.06-4.39,1.29-3.61.26-1.29v-2.06l-.26-.77-.51-.78-.52-.77-.51-.52L615,269l-1.55-.77-1.8-.52H608l-1,.26-.77.26-1,.52-.77.77-2.07,1.81-2.06,2.57-4.65,5.94-4.9,7.48-5.41,8-5.94,8.25L576,307.46l-3.1,3.87-3.35,3.35-3.61,3.1,4.64-8.52,4.65-9.8,2.58-5.41,2.32-5.42,2.32-5.68,2.06-5.67,1.81-5.93,1.8-5.68,1.29-5.67,1-5.68.51-5.42.26-5.16-.26-2.58-.26-2.32-.25-2.32L590,234.2l-.26-.77-.51-.78-.78-.77-.51-.52-1.81-.77-1.81-.52h-1.8l-1.55.26-.51.26-.78.26-.26.51-.25.78-2.58,8.51-2.33,8.51-2.32,9L569.57,267l-2.32,8.77-3.1,8.26-1.54,4.12-1.81,3.61-2.06,3.87L556.41,299l1.55-7.48,1-6.71,1-6.19.51-5.68.52-4.9.26-4.38-.26-3.61-.26-3.1-.52-2.58-.77-2.06-.52-.78-.51-.77-.52-.52-.77-.26-.78-.25-.77-.26h-.77l-.78.26-2.06.51-2.06,1-1.81,8.26-1.81,8L544.29,275,542,282.18l-2.58,7.22-2.84,7.23-3.09,7.48-3.61,7.48-2.58,4.9-2.58,4.9-2.84,4.9-2.84,4.9-3.09,4.64-3.1,4.65-3.35,4.64-3.36,4.64-6.19,7.74-6.45,7.23-6.7,7.22-7,6.71-7.22,6.7-7.48,6.19-7.74,5.94-8,5.67L444,406.77l-5.68,3.61-5.67,3.36-5.68,3.35-9,4.13-9,4.13-9.28,3.35-9.29,3.35-7.74,2.32-7.74,2.33-8,1.8-8,1.81-8,1.29-8.25,1-8,1-8.25.52-.78.25-.77.26-1.55.78-1.8,1.29-2.58,2.32-3.36,3.09-4.12,4.13-4.91,5.42-4.64,5.42-5.42,5.93-2.83,2.84-2.84,2.83-3.36,2.58L284,483.9l-2.58,1.81-2.58,1.55L276,488.55l-2.83,1.29L267,492.42l-6.19,2.32-6.2,2.32-5.41,2.06-2.32,1-2.33,1.29-2.06,1-1.55,1-1.55,1.54-1.28,1.29-.78,1.29-.51,1.29-.26,1.81v1" transform="translate(0 0)"/>
    <path id="path3938" class="cls-3" d="M251.49,511.47a1,1,0,1,1,1-1A1,1,0,0,1,251.49,511.47Z" transform="translate(0 0)"/>
</svg>